<?xml version="1.0" encoding="utf-8"?>
<svg version="1.1" xmlns="http://www.w3.org/2000/svg" xmlns:xlink="http://www.w3.org/1999/xlink" x="0px" y="0px"
	 width="500.0px" height="500.0px" viewBox="0 0 500 500" enable-background="new 0 0 500 500"
	 xml:space="preserve">

<g transform="translate(250 250)">
	<!-- torso -->
	<polygon fill="#EF161F" points="-50,-50 50,-50 -50,50 "/>
	<polygon fill="#EF161F" points="-50,50 50,-50 50,50"/>

	<!-- head -->
	<g transform="translate(0 -100)">
		<g transform="rotate(45)">
			<g transform="scale(.5 .5)">
				<polygon fill="#EF161F" points="-50,-50 50,-50 -50,50 "/>
				<polygon fill="#EF161F" points="-50,50 50,-50 50,50"/>
			</g>
		</g>
	</g>

	<!-- left leg -->
	<g transform="translate(-35 85)">
		<g transform="rotate(-5)">
			<g transform="scale(.2 .6)">
				<polygon fill="#EF161F" points="-50,-50 50,-50 -50,50 "/>
				<polygon fill="#EF161F" points="-50,50 50,-50 50,50"/>
			</g>
			<g transform="rotate(-15)">
				<g transform="translate(-10 65)">
					<g transform="scale(.2 .6)">
						<polygon fill="#EF161F" points="-50,-50 50,-50 -50,50 "/>
						<polygon fill="#EF161F" points="-50,50 50,-50 50,50"/>
					</g>
				</g>
			</g>
		</g>
	</g>

	<!-- right leg (mirror of left) -->
	<g transform="translate(35 85)">
		<g transform="rotate(5)">
			<g transform="scale(.2 .6)">
				<polygon fill="#EF161F" points="-50,-50 50,-50 -50,50 "/>
				<polygon fill="#EF161F" points="-50,50 50,-50 50,50"/>
			</g>
			<g transform="rotate(15)">
				<g transform="translate(10 65)">
					<g transform="scale(.2 .6)">
						<polygon fill="#EF161F" points="-50,-50 50,-50 -50,50 "/>
						<polygon fill="#EF161F" points="-50,50 50,-50 50,50"/>
					</g>
				</g>
			</g>
		</g>
	</g>

	<!-- left arm -->
	<g transform="translate(-70 -80)">
		<g transform="rotate(65)">
		<g transform="scale(.6 .2)">	
				<polygon fill="#EF161F" points="-50,-50 50,-50 -50,50 "/>
				<polygon fill="#EF161F" points="-50,50 50,-50 50,50"/>
			</g>
		</g>
		<g transform="translate(10 -65)">
			<g transform="rotate(135)">
				<g transform="scale(.6 .2)">
					<polygon fill="#EF161F" points="-50,-50 50,-50 -50,50 "/>
					<polygon fill="#EF161F" points="-50,50 50,-50 50,50"/>
				</g>
			</g>
		</g>
	</g>

	<!-- right arm (mirror of left) -->
	<g transform="translate(70 -80)">
		<g transform="rotate(-65)">
			<g transform="scale(.6 .2)">
				<polygon fill="#EF161F" points="-50,-50 50,-50 -50,50 "/>
				<polygon fill="#EF161F" points="-50,50 50,-50 50,50"/>
			</g>
		</g>
		<g transform="translate(-10 -65)">
			<g transform="rotate(-135)">
				<g transform="scale(.6 .2)">
					<polygon fill="#EF161F" points="-50,-50 50,-50 -50,50 "/>
					<polygon fill="#EF161F" points="-50,50 50,-50 50,50"/>
				</g>
			</g>
		</g>
	</g>

</g>

</svg>
